<mxfile host="app.diagrams.net" modified="2023-06-28T12:17:20.469Z" agent="Mozilla/5.0 (Windows NT 10.0; Win64; x64) AppleWebKit/537.36 (KHTML, like Gecko) Chrome/114.0.0.0 Safari/537.36 Edg/114.0.1823.58" etag="S5_zijV3kWmItkAEOZTh" version="21.5.0" type="github">
  <diagram name="Page-1" id="3moahlvMmFEjl50jRHX7">
    <mxGraphModel dx="1100" dy="634" grid="1" gridSize="10" guides="1" tooltips="1" connect="1" arrows="1" fold="1" page="1" pageScale="1" pageWidth="1169" pageHeight="827" math="0" shadow="0">
      <root>
        <mxCell id="0" />
        <mxCell id="1" parent="0" />
        <mxCell id="QqCRZD2ZL2z7VxAQT_v7-31" value="" style="group" vertex="1" connectable="0" parent="1">
          <mxGeometry x="100" y="40" width="840" height="210" as="geometry" />
        </mxCell>
        <mxCell id="QqCRZD2ZL2z7VxAQT_v7-27" value="&lt;font style=&quot;font-size: 16px;&quot;&gt;MLOps engineer role&lt;br&gt;&lt;br&gt;&lt;br&gt;&lt;br&gt;&lt;br&gt;&lt;br&gt;&lt;br&gt;&lt;br&gt;&lt;br&gt;&lt;br&gt;&lt;/font&gt;" style="rounded=0;whiteSpace=wrap;html=1;fillColor=#f8cecc;strokeColor=#b85450;" vertex="1" parent="QqCRZD2ZL2z7VxAQT_v7-31">
          <mxGeometry x="440" width="400" height="210" as="geometry" />
        </mxCell>
        <mxCell id="QqCRZD2ZL2z7VxAQT_v7-26" value="&lt;font style=&quot;font-size: 16px;&quot;&gt;Data Scientist role&lt;br&gt;&lt;br&gt;&lt;br&gt;&lt;br&gt;&lt;br&gt;&lt;br&gt;&lt;br&gt;&lt;br&gt;&lt;br&gt;&lt;br&gt;&lt;/font&gt;" style="rounded=0;whiteSpace=wrap;html=1;fillColor=#f5f5f5;strokeColor=#666666;fontColor=#333333;" vertex="1" parent="QqCRZD2ZL2z7VxAQT_v7-31">
          <mxGeometry width="440" height="210" as="geometry" />
        </mxCell>
        <mxCell id="QqCRZD2ZL2z7VxAQT_v7-2" value="Tracking backend&amp;nbsp;" style="shape=cylinder3;whiteSpace=wrap;html=1;boundedLbl=1;backgroundOutline=1;size=15;fillColor=#f8cecc;strokeColor=#b85450;" vertex="1" parent="QqCRZD2ZL2z7VxAQT_v7-31">
          <mxGeometry x="240" y="35" width="130" height="80" as="geometry" />
        </mxCell>
        <mxCell id="QqCRZD2ZL2z7VxAQT_v7-12" style="edgeStyle=orthogonalEdgeStyle;rounded=0;orthogonalLoop=1;jettySize=auto;html=1;exitX=1;exitY=0.5;exitDx=0;exitDy=0;fillColor=#f8cecc;strokeColor=#b85450;" edge="1" parent="QqCRZD2ZL2z7VxAQT_v7-31" source="QqCRZD2ZL2z7VxAQT_v7-3" target="QqCRZD2ZL2z7VxAQT_v7-2">
          <mxGeometry relative="1" as="geometry" />
        </mxCell>
        <mxCell id="QqCRZD2ZL2z7VxAQT_v7-3" value="Train" style="rounded=0;whiteSpace=wrap;html=1;fillColor=#f8cecc;strokeColor=#b85450;" vertex="1" parent="QqCRZD2ZL2z7VxAQT_v7-31">
          <mxGeometry x="140" y="60" width="60" height="30" as="geometry" />
        </mxCell>
        <mxCell id="QqCRZD2ZL2z7VxAQT_v7-30" style="edgeStyle=orthogonalEdgeStyle;rounded=0;orthogonalLoop=1;jettySize=auto;html=1;exitX=1;exitY=0.5;exitDx=0;exitDy=0;fillColor=#f8cecc;strokeColor=#b85450;" edge="1" parent="QqCRZD2ZL2z7VxAQT_v7-31" source="QqCRZD2ZL2z7VxAQT_v7-4" target="QqCRZD2ZL2z7VxAQT_v7-3">
          <mxGeometry relative="1" as="geometry" />
        </mxCell>
        <mxCell id="QqCRZD2ZL2z7VxAQT_v7-4" value="Data Prep" style="rounded=0;whiteSpace=wrap;html=1;fillColor=#f8cecc;strokeColor=#b85450;" vertex="1" parent="QqCRZD2ZL2z7VxAQT_v7-31">
          <mxGeometry x="45" y="60" width="60" height="30" as="geometry" />
        </mxCell>
        <mxCell id="QqCRZD2ZL2z7VxAQT_v7-10" value="" style="edgeStyle=orthogonalEdgeStyle;rounded=0;orthogonalLoop=1;jettySize=auto;html=1;fillColor=#f8cecc;strokeColor=#b85450;" edge="1" parent="QqCRZD2ZL2z7VxAQT_v7-31" source="QqCRZD2ZL2z7VxAQT_v7-6" target="QqCRZD2ZL2z7VxAQT_v7-4">
          <mxGeometry relative="1" as="geometry" />
        </mxCell>
        <mxCell id="QqCRZD2ZL2z7VxAQT_v7-6" value="Data Lake" style="shape=cylinder3;whiteSpace=wrap;html=1;boundedLbl=1;backgroundOutline=1;size=15;fillColor=#f8cecc;strokeColor=#b85450;" vertex="1" parent="QqCRZD2ZL2z7VxAQT_v7-31">
          <mxGeometry x="30" y="115" width="90" height="60" as="geometry" />
        </mxCell>
        <mxCell id="QqCRZD2ZL2z7VxAQT_v7-11" value="" style="curved=1;endArrow=classic;html=1;rounded=0;exitX=0.5;exitY=1;exitDx=0;exitDy=0;fillColor=#f8cecc;strokeColor=#b85450;entryX=0.5;entryY=1;entryDx=0;entryDy=0;" edge="1" parent="QqCRZD2ZL2z7VxAQT_v7-31" source="QqCRZD2ZL2z7VxAQT_v7-3" target="QqCRZD2ZL2z7VxAQT_v7-3">
          <mxGeometry width="50" height="50" relative="1" as="geometry">
            <mxPoint x="350" y="110" as="sourcePoint" />
            <mxPoint x="220" y="90" as="targetPoint" />
            <Array as="points">
              <mxPoint x="140" y="150" />
              <mxPoint x="200" y="130" />
            </Array>
          </mxGeometry>
        </mxCell>
        <mxCell id="QqCRZD2ZL2z7VxAQT_v7-13" value="Review and select" style="whiteSpace=wrap;html=1;fillColor=#dae8fc;strokeColor=#6c8ebf;" vertex="1" parent="QqCRZD2ZL2z7VxAQT_v7-31">
          <mxGeometry x="400" y="47.5" width="75" height="55" as="geometry" />
        </mxCell>
        <mxCell id="QqCRZD2ZL2z7VxAQT_v7-18" value="" style="edgeStyle=orthogonalEdgeStyle;rounded=0;orthogonalLoop=1;jettySize=auto;html=1;fillColor=#f8cecc;strokeColor=#b85450;" edge="1" parent="QqCRZD2ZL2z7VxAQT_v7-31" source="QqCRZD2ZL2z7VxAQT_v7-2" target="QqCRZD2ZL2z7VxAQT_v7-13">
          <mxGeometry relative="1" as="geometry" />
        </mxCell>
        <mxCell id="QqCRZD2ZL2z7VxAQT_v7-19" value="Model Registry" style="shape=cylinder3;whiteSpace=wrap;html=1;boundedLbl=1;backgroundOutline=1;size=15;fillColor=#f5f5f5;fontColor=#333333;strokeColor=#666666;" vertex="1" parent="QqCRZD2ZL2z7VxAQT_v7-31">
          <mxGeometry x="520" y="35" width="110" height="80" as="geometry" />
        </mxCell>
        <mxCell id="QqCRZD2ZL2z7VxAQT_v7-25" value="" style="edgeStyle=orthogonalEdgeStyle;rounded=0;orthogonalLoop=1;jettySize=auto;html=1;fillColor=#cce5ff;strokeColor=#2264b9;" edge="1" parent="QqCRZD2ZL2z7VxAQT_v7-31" source="QqCRZD2ZL2z7VxAQT_v7-13" target="QqCRZD2ZL2z7VxAQT_v7-19">
          <mxGeometry relative="1" as="geometry" />
        </mxCell>
        <mxCell id="QqCRZD2ZL2z7VxAQT_v7-20" value="Deploy" style="whiteSpace=wrap;html=1;fillColor=#f5f5f5;fontColor=#333333;strokeColor=#666666;" vertex="1" parent="QqCRZD2ZL2z7VxAQT_v7-31">
          <mxGeometry x="680" y="57.5" width="50" height="35" as="geometry" />
        </mxCell>
        <mxCell id="QqCRZD2ZL2z7VxAQT_v7-21" value="" style="edgeStyle=orthogonalEdgeStyle;rounded=0;orthogonalLoop=1;jettySize=auto;html=1;fillColor=#cce5ff;strokeColor=#2264b9;" edge="1" parent="QqCRZD2ZL2z7VxAQT_v7-31" source="QqCRZD2ZL2z7VxAQT_v7-19" target="QqCRZD2ZL2z7VxAQT_v7-20">
          <mxGeometry relative="1" as="geometry" />
        </mxCell>
        <mxCell id="QqCRZD2ZL2z7VxAQT_v7-24" style="edgeStyle=orthogonalEdgeStyle;rounded=0;orthogonalLoop=1;jettySize=auto;html=1;entryX=0.5;entryY=1;entryDx=0;entryDy=0;entryPerimeter=0;exitX=0.5;exitY=1;exitDx=0;exitDy=0;fillColor=#cce5ff;strokeColor=#2264b9;" edge="1" parent="QqCRZD2ZL2z7VxAQT_v7-31" source="QqCRZD2ZL2z7VxAQT_v7-22" target="QqCRZD2ZL2z7VxAQT_v7-6">
          <mxGeometry relative="1" as="geometry">
            <Array as="points">
              <mxPoint x="790" y="200" />
              <mxPoint x="75" y="200" />
            </Array>
          </mxGeometry>
        </mxCell>
        <mxCell id="QqCRZD2ZL2z7VxAQT_v7-22" value="Monitor" style="whiteSpace=wrap;html=1;fillColor=#f5f5f5;fontColor=#333333;strokeColor=#666666;" vertex="1" parent="QqCRZD2ZL2z7VxAQT_v7-31">
          <mxGeometry x="760" y="115" width="60" height="35" as="geometry" />
        </mxCell>
        <mxCell id="QqCRZD2ZL2z7VxAQT_v7-23" value="" style="edgeStyle=orthogonalEdgeStyle;rounded=0;orthogonalLoop=1;jettySize=auto;html=1;fillColor=#cce5ff;strokeColor=#2264b9;" edge="1" parent="QqCRZD2ZL2z7VxAQT_v7-31" source="QqCRZD2ZL2z7VxAQT_v7-20" target="QqCRZD2ZL2z7VxAQT_v7-22">
          <mxGeometry relative="1" as="geometry" />
        </mxCell>
      </root>
    </mxGraphModel>
  </diagram>
</mxfile>
